<svg style="display:none" xmlns="http://www.w3.org/2000/svg" xmlns:xlink="http://www.w3.org/1999/xlink" version="1.1">
	<symbol id="search" xmlns="http://www.w3.org/2000/svg" fill="none" viewBox="0 0 24 24" stroke-width="1.5" stroke="currentColor"><path stroke-linecap="round" stroke-linejoin="round" d="m21 21-5.197-5.197m0 0A7.5 7.5 0 1 0 5.196 5.196a7.5 7.5 0 0 0 10.607 10.607z"/></symbol>
	<symbol id="user" xmlns="http://www.w3.org/2000/svg" fill="none" viewBox="0 0 24 24" stroke-width="1.5" stroke="currentColor"><path stroke-linecap="round" stroke-linejoin="round" d="M15.75 6a3.75 3.75 0 1 1-7.5 0 3.75 3.75 0 0 1 7.5 0zM4.501 20.118a7.5 7.5 0 0 1 14.998 0A17.933 17.933 0 0 1 12 21.75c-2.676 0-5.216-.584-7.499-1.632z"/></symbol>
	<symbol id="chevron-right" xmlns="http://www.w3.org/2000/svg" fill="none" viewBox="0 0 20 20" stroke-width="1.5" stroke="currentColor"><path stroke-linecap="round" stroke-linejoin="round" d="M8.25 4.5l7.5 7.5-7.5 7.5"></path></symbol>
	<symbol id="heart" xmlns="http://www.w3.org/2000/svg" fill="none" viewBox="0 0 24 24" stroke-width="1.5" stroke="currentColor"><path stroke-linecap="round" stroke-linejoin="round" d="M21 8.25c0-2.485-2.099-4.5-4.688-4.5-1.935 0-3.597 1.126-4.312 2.733-.715-1.607-2.377-2.733-4.313-2.733C5.1 3.75 3 5.765 3 8.25c0 7.22 9 12 9 12s9-4.78 9-12z"/></symbol>
	<symbol id="heart-wishlist" xmlns="http://www.w3.org/2000/svg" viewBox="0 0 24 24" stroke="currentColor" stroke-width="2"><path stroke-linecap="round" stroke-linejoin="round" d="M4.318 6.318a4.5 4.5 0 0 0 0 6.364L12 20.364l7.682-7.682a4.5 4.5 0 0 0-6.364-6.364L12 7.636l-1.318-1.318a4.5 4.5 0 0 0-6.364 0z"/></symbol>
	<symbol id="bag" xmlns="http://www.w3.org/2000/svg" fill="none" viewBox="0 0 24 24" stroke-width="1.5" stroke="currentColor" width="32" height="32"><path stroke-linecap="round" stroke-linejoin="round" d="M15.75 10.5V6a3.75 3.75 0 1 0-7.5 0v4.5m11.356-1.993 1.263 12c.07.665-.45 1.243-1.119 1.243H4.25a1.125 1.125 0 0 1-1.12-1.243l1.264-12A1.125 1.125 0 0 1 5.513 7.5h12.974c.576 0 1.059.435 1.119 1.007zM8.625 10.5a.375.375 0 1 1-.75 0 .375.375 0 0 1 .75 0zm7.5 0a.375.375 0 1 1-.75 0 .375.375 0 0 1 .75 0z"/></symbol>
	<symbol id="menu" xmlns="http://www.w3.org/2000/svg" fill="none" viewBox="0 0 24 24" stroke-width="1.5" stroke="currentColor"><path stroke-linecap="round" stroke-linejoin="round" d="M3.75 6.75h16.5M3.75 12h16.5m-16.5 5.25h16.5"/></symbol>
	<symbol id="close" xmlns="http://www.w3.org/2000/svg" fill="currentColor" viewBox="0 0 256 256"><path d="M205.66,194.34a8,8,0,0,1-11.32,11.32L128,139.31,61.66,205.66a8,8,0,0,1-11.32-11.32L116.69,128,50.34,61.66A8,8,0,0,1,61.66,50.34L128,116.69l66.34-66.35a8,8,0,0,1,11.32,11.32L139.31,128Z"></path></symbol>
	<symbol id="really-large-chevron-right" width="49" height="91" xmlns="http://www.w3.org/2000/svg" xmlns:xlink="http://www.w3.org/1999/xlink"><use xlink:href="#a" transform="rotate(-135 20.16 44.669)"/><use xlink:href="#a" transform="rotate(-45 3.414 1.414)"/><defs><path id="a" d="M0 0h4v64H0V0Z"/></defs></symbol>
	<symbol id="chevron-down" viewBox="0 0 18 18" xmlns="http://www.w3.org/2000/svg"><path d="m16.082 5.432-7.136 7.136M1.918 5.432l7.136 7.136" stroke="currentColor" stroke-width="1"/></symbol>
	<symbol id="check" viewBox="0 0 24 24"><path fill="currentColor" d="m9.55 15.15l8.475-8.475q.3-.3.7-.3t.7.3t.3.713t-.3.712l-9.175 9.2q-.3.3-.7.3t-.7-.3L4.55 13q-.3-.3-.288-.712t.313-.713t.713-.3t.712.3z"></path></symbol>
	<symbol id="filter" viewBox="0 0 256 256"><path fill="currentColor" d="M176 80a12 12 0 0 1 12-12h28a12 12 0 0 1 0 24h-28a12 12 0 0 1-12-12M40 92h96v12a12 12 0 0 0 24 0V56a12 12 0 0 0-24 0v12H40a12 12 0 0 0 0 24m176 72h-92a12 12 0 0 0 0 24h92a12 12 0 0 0 0-24M84 140a12 12 0 0 0-12 12v12H40a12 12 0 0 0 0 24h32v12a12 12 0 0 0 24 0v-48a12 12 0 0 0-12-12"></path></symbol>
	<symbol id="home" viewBox="0 0 24 24"><path fill="currentColor" d="M6 19h3v-5q0-.425.288-.712T10 13h4q.425 0 .713.288T15 14v5h3v-9l-6-4.5L6 10zm-2 0v-9q0-.475.213-.9t.587-.7l6-4.5q.525-.4 1.2-.4t1.2.4l6 4.5q.375.275.588.7T20 10v9q0 .825-.588 1.413T18 21h-4q-.425 0-.712-.288T13 20v-5h-2v5q0 .425-.288.713T10 21H6q-.825 0-1.412-.587T4 19m8-6.75"></path></symbol>
	<symbol id="seller-check" xmlns="http://www.w3.org/2000/svg" fill="none" viewBox="0 0 24 24" stroke-width="1.5" stroke="currentColor"><path stroke-linecap="round" stroke-linejoin="round" d="M9 12.75 11.25 15 15 9.75m-3-7.036A11.959 11.959 0 0 1 3.598 6 11.99 11.99 0 0 0 3 9.749c0 5.592 3.824 10.29 9 11.623 5.176-1.332 9-6.03 9-11.622 0-1.31-.21-2.571-.598-3.751h-.152c-3.196 0-6.1-1.248-8.25-3.285z"/></symbol>
	<symbol id="shipping" xmlns="http://www.w3.org/2000/svg" fill="none" viewBox="0 0 24 24" stroke-width="1.5" stroke="currentColor"><path stroke-linecap="round" stroke-linejoin="round" d="M8.25 18.75a1.5 1.5 0 0 1-3 0m3 0a1.5 1.5 0 0 0-3 0m3 0h6m-9 0H3.375a1.125 1.125 0 0 1-1.125-1.125V14.25m17.25 4.5a1.5 1.5 0 0 1-3 0m3 0a1.5 1.5 0 0 0-3 0m3 0h1.125c.621 0 1.129-.504 1.09-1.124a17.902 17.902 0 0 0-3.213-9.193 2.056 2.056 0 0 0-1.58-.86H14.25M16.5 18.75h-2.25m0-11.177v-.958c0-.568-.422-1.048-.987-1.106a48.554 48.554 0 0 0-10.026 0 1.106 1.106 0 0 0-.987 1.106v7.635m12-6.677v6.677m0 4.5v-4.5m0 0h-12"/></symbol>
</svg>
